<svg id="dashboard" xmlns="http://www.w3.org/2000/svg" viewBox="0 0 512.1 445.4"><defs><style>.cls-1{fill:#10385b;}.cls-2{fill:#2c9bf7;}</style></defs><title>dashboard</title><path class="cls-1" d="M371.5,472.6a13.26,13.26,0,0,1-11.1,6.1H151.6a13.2,13.2,0,0,1-12.1-18.4,31.75,31.75,0,0,1,29-18.7h25v-22H318.6v22h25a32,32,0,0,1,29,18.7A13.11,13.11,0,0,1,371.5,472.6ZM166.7,157.4a60.39,60.39,0,1,1-74-74c-.7,2.7-.3.9-.4,58.3a16,16,0,0,0,16,16C165.4,157.6,163.9,157.9,166.7,157.4Z" transform="translate(0 -33.3)"/><path class="cls-2" d="M168.7,141.7a5.34,5.34,0,0,1-5.3,5.3h-55a5.34,5.34,0,0,1-5.3-5.3v-55a5.27,5.27,0,0,1,5.3-5.3A60.3,60.3,0,0,1,168.7,141.7Zm-5.3,92.7H53.3a5.3,5.3,0,0,1,0-10.6H163.4a5.3,5.3,0,0,1,0,10.6Zm0,31.4H53.3a5.3,5.3,0,1,1,0-10.6H163.4a5.34,5.34,0,0,1,5.3,5.3A5.27,5.27,0,0,1,163.4,265.8Zm0,31.5H53.3a5.3,5.3,0,1,1,0-10.6H163.4a5.3,5.3,0,0,1,0,10.6Zm103-88.8v78.1a10.71,10.71,0,0,1-10.7,10.7H233.5a10.71,10.71,0,0,1-10.7-10.7V208.5a10.65,10.65,0,0,1,10.7-10.7h22.2A10.71,10.71,0,0,1,266.4,208.5Zm65.9-55V286.6a10.71,10.71,0,0,1-10.7,10.7H299.4a10.71,10.71,0,0,1-10.7-10.7V153.5a10.65,10.65,0,0,1,10.7-10.7h22.2A10.71,10.71,0,0,1,332.3,153.5Zm65.8,55v78.1a10.71,10.71,0,0,1-10.7,10.7H365.1a10.71,10.71,0,0,1-10.7-10.7V208.5a10.71,10.71,0,0,1,10.7-10.7h22.3A10.71,10.71,0,0,1,398.1,208.5ZM464,175.9V286.6a10.71,10.71,0,0,1-10.7,10.7H431a10.71,10.71,0,0,1-10.7-10.7V175.9A10.71,10.71,0,0,1,431,165.2h22.3A10.71,10.71,0,0,1,464,175.9Z" transform="translate(0 -33.3)"/><path class="cls-1" d="M376.3,170.3a5.65,5.65,0,0,1-4.1-1.9L310,94.4,248.3,154a5.3,5.3,0,0,1-7.4-7.6l65.9-63.6a5.33,5.33,0,0,1,7.8.4l62.7,74.6,61.9-43.7a5.31,5.31,0,1,1,6.1,8.7l-65.9,46.6A5.61,5.61,0,0,1,376.3,170.3ZM256,359.2a7.3,7.3,0,1,0,7.3,7.3A7.34,7.34,0,0,0,256,359.2Z" transform="translate(0 -33.3)"/><path class="cls-1" d="M485.3,33.3H26.7A26.61,26.61,0,0,0,0,59.9V382.3A26.69,26.69,0,0,0,26.7,409H485.4a26.76,26.76,0,0,0,26.7-26.7V59.9A26.82,26.82,0,0,0,485.3,33.3ZM256,384.5a18,18,0,1,1,18-18A18.05,18.05,0,0,1,256,384.5Zm234.7-60.6H21.3V59.9a5.34,5.34,0,0,1,5.3-5.3H485.3a5.34,5.34,0,0,1,5.3,5.3v264Z" transform="translate(0 -33.3)"/></svg>