<svg id="es2WDS9Vm1j1" xmlns="http://www.w3.org/2000/svg" xmlns:xlink="http://www.w3.org/1999/xlink" viewBox="0 0 512 512" shape-rendering="geometricPrecision" text-rendering="geometricPrecision">
<style><![CDATA[
#es2WDS9Vm1j3_ts {animation: es2WDS9Vm1j3_ts__ts 2000ms linear infinite normal forwards}@keyframes es2WDS9Vm1j3_ts__ts { 0% {transform: translate(256px,189.350006px) scale(0,1)} 65% {transform: translate(256px,189.350006px) scale(1,1)} 100% {transform: translate(256px,189.350006px) scale(1,1)}} #es2WDS9Vm1j4_to {animation: es2WDS9Vm1j4_to__to 2000ms linear infinite normal forwards}@keyframes es2WDS9Vm1j4_to__to { 0% {transform: translate(343.542385px,149.64619px)} 65% {transform: translate(343.542385px,227.64619px)} 100% {transform: translate(343.542385px,227.64619px)}} #es2WDS9Vm1j4 {animation: es2WDS9Vm1j4_c_o 2000ms linear infinite normal forwards}@keyframes es2WDS9Vm1j4_c_o { 0% {opacity: 0} 25% {opacity: 0} 65% {opacity: 1} 100% {opacity: 1}}
]]></style>
<path d="M371.5,472.6c-2.5,3.8-6.6,6.1-11.1,6.1h-208.8c-4.5,0-8.7-2.3-11.1-6.1-2.4-3.7-2.7-8.3-1-12.3c5.1-11.4,16.5-18.7,29-18.7h25v-22h125.1v22h25c12.5,0,23.8,7.4,29,18.7c1.7,4,1.3,8.7-1.1,12.3ZM166.7,157.4c-6.9,25.7-30.5,44.7-58.3,44.7C75.1,202,48,175,48,141.7c0-27.9,19-51.4,44.7-58.3-.7,2.7-.3.9-.4,58.3c0,8.8,7.2,16,16,16c57.1-.1,55.6.2,58.4-.3Z" fill="#ab0f23"/><g id="es2WDS9Vm1j3_ts" transform="translate(256,189.350006) scale(0,1)"><path d="M168.7,141.7c0,2.9-2.4,5.3-5.3,5.3h-55c-2.9,0-5.3-2.4-5.3-5.3v-55c0-3,2.4-5.3,5.3-5.3c33.3,0,60.3,27,60.3,60.3Zm-5.3,92.7h-110.1c-2.9,0-5.3-2.4-5.3-5.3s2.4-5.3,5.3-5.3h110.1c2.9,0,5.3,2.4,5.3,5.3s-2.4,5.3-5.3,5.3Zm0,31.4h-110.1c-2.9,0-5.3-2.4-5.3-5.3s2.4-5.3,5.3-5.3h110.1c2.9,0,5.3,2.4,5.3,5.3c0,3-2.4,5.3-5.3,5.3Zm0,31.5h-110.1c-2.9,0-5.3-2.4-5.3-5.3s2.4-5.3,5.3-5.3h110.1c2.9,0,5.3,2.4,5.3,5.3s-2.4,5.3-5.3,5.3Zm103-88.8v78.1c0,5.9-4.8,10.7-10.7,10.7h-22.2c-5.9,0-10.7-4.8-10.7-10.7v-78.1c0-5.9,4.7-10.7,10.7-10.7h22.2c5.9,0,10.7,4.8,10.7,10.7Zm65.9-55v133.1c0,5.9-4.8,10.7-10.7,10.7h-22.2c-5.9,0-10.7-4.8-10.7-10.7v-133.1c0-5.9,4.7-10.7,10.7-10.7h22.2c5.9,0,10.7,4.8,10.7,10.7Zm65.8,55v78.1c0,5.9-4.8,10.7-10.7,10.7h-22.3c-5.9,0-10.7-4.8-10.7-10.7v-78.1c0-5.9,4.8-10.7,10.7-10.7h22.3c5.9,0,10.7,4.8,10.7,10.7ZM464,175.9v110.7c0,5.9-4.8,10.7-10.7,10.7h-22.3c-5.9,0-10.7-4.8-10.7-10.7v-110.7c0-5.9,4.8-10.7,10.7-10.7h22.3c5.9,0,10.7,4.8,10.7,10.7Z" transform="translate(-256,-189.350006)" fill="#e74d61"/></g><g id="es2WDS9Vm1j4_to" transform="translate(343.542385,149.64619)"><path id="es2WDS9Vm1j4" d="M376.3,170.3c-1.5,0-3-.7-4.1-1.9L310,94.4L248.3,154c-2.1,2-5.5,2-7.5-.1s-2-5.5.1-7.5l65.9-63.6c1.1-1,2.5-1.6,4-1.5s2.9.8,3.8,1.9l62.7,74.6l61.9-43.7c2.4-1.7,5.7-1.1,7.4,1.3s1.1,5.7-1.3,7.4l-65.9,46.6c-.9.6-2,.9-3.1.9ZM256,359.2c-4,0-7.3,3.3-7.3,7.3s3.3,7.3,7.3,7.3s7.3-3.3,7.3-7.3-3.3-7.3-7.3-7.3Z" transform="translate(-343.440788,-227.544571)" opacity="0" fill="#ab0f23"/></g><path d="M485.3,33.3h-458.6C11.9,33.3,0,45.2,0,59.9c0,8.5,0,342.8,0,322.4C0,397,11.9,409,26.7,409h458.7c14.7,0,26.7-12,26.7-26.7c0-40.7,0-281.9,0-322.4-.1-14.7-12.1-26.6-26.8-26.6ZM256,384.5c-9.9,0-18-8.1-18-18s8.1-18,18-18s18,8.1,18,18-8.1,18-18,18Zm234.7-60.6h-469.4v-264c0-2.9,2.4-5.3,5.3-5.3h458.7c2.9,0,5.3,2.4,5.3,5.3v264h.1Z" fill="#ab0f23"/></svg>
