<svg id="eMDNdZqSalt1" xmlns="http://www.w3.org/2000/svg" xmlns:xlink="http://www.w3.org/1999/xlink" viewBox="0 0 512.1 445.4" shape-rendering="geometricPrecision" text-rendering="geometricPrecision">
<style><![CDATA[
#eMDNdZqSalt6 {animation: eMDNdZqSalt6_c_o 1800ms linear infinite normal forwards}@keyframes eMDNdZqSalt6_c_o { 0% {opacity: 0} 50% {opacity: 1} 100% {opacity: 1}} #eMDNdZqSalt16_ts {animation: eMDNdZqSalt16_ts__ts 1800ms linear infinite normal forwards}@keyframes eMDNdZqSalt16_ts__ts { 0% {transform: translate(442.710009px,262.48px) scale(1,0)} 38.888889% {transform: translate(442.710009px,262.48px) scale(1,0)} 66.666667% {transform: translate(442.710009px,262.48px) scale(1,1)} 100% {transform: translate(442.710009px,262.48px) scale(1,1)}} #eMDNdZqSalt18_ts {animation: eMDNdZqSalt18_ts__ts 1800ms linear infinite normal forwards}@keyframes eMDNdZqSalt18_ts__ts { 0% {transform: translate(310.899933px,264px) scale(1,0)} 11.111111% {transform: translate(310.899933px,264px) scale(1,0)} 38.888889% {transform: translate(310.899933px,264px) scale(1,1)} 100% {transform: translate(310.899933px,264px) scale(1,1)}} #eMDNdZqSalt20_to {animation: eMDNdZqSalt20_to__to 1800ms linear infinite normal forwards}@keyframes eMDNdZqSalt20_to__to { 0% {transform: translate(376.760015px,259.3px)} 22.222222% {transform: translate(376.760015px,259.3px)} 50% {transform: translate(376.760015px,314.95px)} 100% {transform: translate(376.760015px,314.95px)}} #eMDNdZqSalt20_ts {animation: eMDNdZqSalt20_ts__ts 1800ms linear infinite normal forwards}@keyframes eMDNdZqSalt20_ts__ts { 0% {transform: scale(1,0)} 22.222222% {transform: scale(1,0)} 50% {transform: scale(1,1)} 100% {transform: scale(1,1)}} #eMDNdZqSalt22_to {animation: eMDNdZqSalt22_to__to 1800ms linear infinite normal forwards}@keyframes eMDNdZqSalt22_to__to { 0% {transform: translate(243.799942px,264px)} 27.777778% {transform: translate(243.799942px,217.4px)} 100% {transform: translate(243.799942px,217.4px)}} #eMDNdZqSalt22_ts {animation: eMDNdZqSalt22_ts__ts 1800ms linear infinite normal forwards}@keyframes eMDNdZqSalt22_ts__ts { 0% {transform: scale(1,0)} 27.777778% {transform: scale(1,1)} 100% {transform: scale(1,1)}} #eMDNdZqSalt25_to {animation: eMDNdZqSalt25_to__to 1800ms linear infinite normal forwards}@keyframes eMDNdZqSalt25_to__to { 0% {transform: translate(288.100049px,232.664769px)} 16.666667% {transform: translate(313.476139px,208.369359px)} 100% {transform: translate(313.476139px,208.369359px)}} #eMDNdZqSalt25_ts {animation: eMDNdZqSalt25_ts__ts 1800ms linear infinite normal forwards}@keyframes eMDNdZqSalt25_ts__ts { 0% {transform: rotate(47.135641deg) scale(0.28,0)} 16.666667% {transform: rotate(47.135641deg) scale(0.28,1)} 100% {transform: rotate(47.135641deg) scale(0.28,1)}} #eMDNdZqSalt26_to {animation: eMDNdZqSalt26_to__to 1800ms linear infinite normal forwards}@keyframes eMDNdZqSalt26_to__to { 0% {transform: translate(374.493064px,128.00893px)} 27.777778% {transform: translate(374.493064px,128.00893px)} 44.444444% {transform: translate(374.493064px,128.008911px)} 100% {transform: translate(374.493064px,128.008911px)}} #eMDNdZqSalt26_ts {animation: eMDNdZqSalt26_ts__ts 1800ms linear infinite normal forwards}@keyframes eMDNdZqSalt26_ts__ts { 0% {transform: rotate(54.197661deg) scale(0.28,0)} 27.777778% {transform: rotate(54.197661deg) scale(0.28,0)} 44.444444% {transform: rotate(54.197661deg) scale(0.28,0.87)} 100% {transform: rotate(54.197661deg) scale(0.28,0.87)}} #eMDNdZqSalt27_to {animation: eMDNdZqSalt27_to__to 1800ms linear infinite normal forwards}@keyframes eMDNdZqSalt27_to__to { 0% {transform: translate(311.037628px,48.599841px)} 16.666667% {transform: translate(311.037628px,48.599841px)} 27.777778% {transform: translate(332.799224px,73.544978px)} 100% {transform: translate(332.799224px,73.544978px)}} #eMDNdZqSalt27_ts {animation: eMDNdZqSalt27_ts__ts 1800ms linear infinite normal forwards}@keyframes eMDNdZqSalt27_ts__ts { 0% {transform: rotate(139.365991deg) scale(0.28,0)} 16.666667% {transform: rotate(139.365991deg) scale(0.28,0)} 27.777778% {transform: rotate(139.365991deg) scale(0.28,1.08)} 100% {transform: rotate(139.365991deg) scale(0.28,1.08)}}
]]></style>
<g><path d="M371.5,439.3c-2.429585,3.780436-6.606227,6.075708-11.1,6.1h-208.8c-4.433377-.005855-8.567258-2.238538-11.003178-5.942747s-2.847995-8.384384-1.096822-12.457253c5.140209-11.400713,16.4941-18.722016,29-18.7h25v-22h125.1v22h25c12.487299.041065,23.810006,7.342259,29,18.7c1.711861,4.0262,1.299116,8.641448-1.1,12.3Z" fill="white"/><path d="M256,325.9c-4.031679,0-7.3,3.268321-7.3,7.3s3.268321,7.3,7.3,7.3s7.3-3.268321,7.3-7.3v0c-.021862-4.022588-3.277412-7.278138-7.3-7.3Z" fill="white"/><path d="M485.3,0L26.7,0c-7.057423-.02391-13.835286,2.756731-18.842516,7.730204s-7.833655,11.732373-7.857484,18.789796L0,349c-.002653,7.078628,2.806778,13.868388,7.810248,18.875609s11.791124,7.821739,18.869752,7.824391h458.72c14.732314-.032995,26.667005-11.967686,26.7-26.7v-322.4C511.979266,11.881504,500.018987,0.010481,485.3,0ZM256,351.2c-9.941125,0-18-8.058875-18-18s8.058875-18,18-18s18,8.058875,18,18-8.058875,18-18,18Zm234.7-60.6h-469.4v-264c.021777-2.918041,2.381959-5.278223,5.3-5.3h458.7c2.918041.021777,5.278223,2.381959,5.3,5.3v264Z" fill="white"/></g><g id="eMDNdZqSalt6" opacity="0"><path d="M168.23,109.17c-.021777,2.918041-2.381959,5.278223-5.3,5.3h-55c-2.918041-.021777-5.278223-2.381959-5.3-5.3v-55c-.0111-2.908309,2.331753-5.277988,5.24-5.3h.06c33.30277,0,60.3,26.99723,60.3,60.3Z" fill="#e74d61"/></g><g><path d="M167.71,123.1c-7.606677,28.288618-34.418228,47.03877-63.599477,44.477091s-52.315935-25.696366-54.877614-54.877614s16.188473-55.9928,44.477091-63.599477c-.7,2.7-.3.9-.4,58.3c0,8.836556,7.163444,16,16,16c57.1-.1,55.6.2,58.4-.3Z" fill="white"/></g><g><path d="M163.69,264.6h-110.1c-1.893508,0-3.643181-1.010174-4.589935-2.65s-.946754-3.660174,0-5.3s2.696427-2.65,4.589935-2.65h110.1c2.918041.021777,5.278223,2.381959,5.3,5.3.007979,1.397698-.539613,2.741317-1.522309,3.735264s-2.319993,1.556802-3.717691,1.564736Z" fill="#e74d61"/></g><g><path d="M163.69,233.1h-110.1c-2.927109,0-5.3-2.372891-5.3-5.3s2.372891-5.3,5.3-5.3h110.1c2.918041.021777,5.278223,2.381959,5.3,5.3.007979,1.397698-.539613,2.741317-1.522309,3.735264s-2.319993,1.556802-3.717691,1.564736Z" fill="#e74d61"/></g><g><path d="M163.4,201.47h-110.1c-2.927109,0-5.3-2.372891-5.3-5.3s2.372891-5.3,5.3-5.3h110.1c2.9158.027125,5.272875,2.3842,5.3,5.3.010645,1.398497-.536084,2.743658-1.519354,3.738186s-2.322119,1.556537-3.720646,1.561814Z" fill="#e74d61"/></g><g id="eMDNdZqSalt16_ts" transform="translate(442.710009,262.48) scale(1,0)"><g transform="translate(-442.709991,-262.48)"><path d="M464.56,123.28v131.19c0,7-4.8,12.67-10.7,12.68h-22.3c-5.91,0-10.7-5.68-10.7-12.68v-131.19c0-7,4.79-12.67,10.7-12.68h22.3c5.9.01,10.69,5.68,10.7,12.68Z" fill="#e74d61"/></g></g><g id="eMDNdZqSalt18_ts" transform="translate(310.899933,264) scale(1,0)"><g transform="translate(-310.899933,-187.850006)"><path d="M332.65,121.3v133.1c-.005405,5.887716-4.762374,10.667018-10.65,10.7h-22.2c-5.907162-.005513-10.694487-4.792838-10.7-10.7v-133.1c-.013292-2.824565,1.096031-5.53872,3.083923-7.545366s4.691512-3.141404,7.516077-3.154634h22.3c5.907162.005513,10.694487,4.792838,10.7,10.7Z" transform="translate(-4.613275-75.124994)" fill="#e74d61"/></g></g><g id="eMDNdZqSalt20_to" transform="translate(376.760015,259.3)"><g id="eMDNdZqSalt20_ts" transform="scale(1,0)"><g transform="translate(-376.76,-314.35)"><path d="M398.61,175.2v78.1c-.005513,5.907162-4.792838,10.694487-10.7,10.7h-22.3c-5.904882-.011006-10.688994-4.795118-10.7-10.7v-78.1c.011006-5.904882,4.795118-10.688994,10.7-10.7h22.3c5.907162.005513,10.694487,4.792838,10.7,10.7Z" fill="#e74d61"/></g></g></g><g id="eMDNdZqSalt22_to" transform="translate(243.799942,264)"><g id="eMDNdZqSalt22_ts" transform="scale(1,0)"><g transform="translate(-243.799942,-214.25)"><path d="M265.59,175.2v78.1c-.005513,5.907162-4.792838,10.694487-10.7,10.7h-22.2c-5.903256-.011021-10.684498-4.796736-10.69-10.7v-78.1c-.013292-2.824565,1.096031-5.53872,3.083923-7.545366s4.691512-3.141404,7.516077-3.154634h22.3c5.907162.005513,10.694487,4.792838,10.7,10.7Z" transform="translate(-2.3-2.05)" fill="#e74d61"/></g></g></g><g transform="translate(-44.600095-121.209633)"><g id="eMDNdZqSalt25_to" transform="translate(288.100049,232.664769)"><g id="eMDNdZqSalt25_ts" transform="rotate(47.135641) scale(0.28,0)"><path d="M265.59,175.2v78.1c-.005513,5.907162-4.792838,10.694487-10.7,10.7h-22.2c-5.903256-.011021-10.684498-4.796736-10.69-10.7v-78.1c-.013292-2.824565,1.096031-5.53872,3.083923-7.545366s4.691512-3.141404,7.516077-3.154634h22.3c5.907162.005513,10.694487,4.792838,10.7,10.7Z" transform="translate(-243.799942,-227.686991)" fill="white"/></g></g></g><g id="eMDNdZqSalt26_to" transform="translate(374.493064,128.00893)"><g id="eMDNdZqSalt26_ts" transform="rotate(54.197661) scale(0.28,0)"><path d="M265.59,175.2v78.1c-.005513,5.907162-4.792838,10.694487-10.7,10.7h-22.2c-5.903256-.011021-10.684498-4.796736-10.69-10.7v-78.1c-.013292-2.824565,1.096031-5.53872,3.083923-7.545366s4.691512-3.141404,7.516077-3.154634h22.3c5.907162.005513,10.694487,4.792838,10.7,10.7Z" transform="translate(-246.633802,-262.735511)" fill="white"/></g></g><g id="eMDNdZqSalt27_to" transform="translate(311.037628,48.599841)"><g id="eMDNdZqSalt27_ts" transform="rotate(139.365991) scale(0.28,0)"><path d="M265.59,175.2v78.1c-.005513,5.907162-4.792838,10.694487-10.7,10.7h-22.2c-5.903256-.011021-10.684498-4.796736-10.69-10.7v-78.1c-.013292-2.824565,1.096031-5.53872,3.083923-7.545366s4.691512-3.141404,7.516077-3.154634h22.3c5.907162.005513,10.694487,4.792838,10.7,10.7Z" transform="translate(-246.95171,-229.415251)" fill="white"/></g></g></svg>
