<svg id="e4iQhy6zGZt1" xmlns="http://www.w3.org/2000/svg" xmlns:xlink="http://www.w3.org/1999/xlink" viewBox="0 0 60 60" shape-rendering="geometricPrecision" text-rendering="geometricPrecision"><g transform="matrix(1.09408 0 0 1.09408 3.0261 1.608624)"><path d="M5.5,20.7v24.7c0,1.3,1,2.3,2.3,2.3v0c1.3,0,2.3-1,2.3-2.3v-16.8" fill="none" stroke="#10385b" stroke-width="1.5" stroke-linecap="round" stroke-linejoin="round" stroke-miterlimit="10"/><path d="M10.5,32h3.4c1.2,0,2.2,1,2.2,2.2v4.5c0,1.2,1,2.2,2.2,2.2v0c1.2,0,2.2-1,2.2-2.2v-9.1c0-1.2-1-2.2-2.2-2.2h-.9c-1.2,0-2.2-1-2.2-2.2v-3.3c0-.1,0-.3.1-.4.2-.5.8-1.7,2.5-2.4L26.1,14c.6-.4.8-1.1.4-1.7L25.8,11c-.4-.6-1.2-.8-1.8-.4l-6.5,4.3c-.1,0-.1.1-.2.1-.5.2-2.8,1.2-4.9,1.2c0,0-6.4-.5-8.3,2c0,0-4.1,2.6-2.2,12.7c0,0,.8,2.2,3.2,1.9" fill="none" stroke="#10385b" stroke-width="1.5" stroke-linecap="round" stroke-linejoin="round" stroke-miterlimit="10"/><polyline points="6.9,16.6 10,20.7 13.3,16.1" fill="none" stroke="#10385b" stroke-width="1.5" stroke-linecap="round" stroke-linejoin="round" stroke-miterlimit="10"/><circle r="4.8" transform="translate(10 11.4)" fill="none" stroke="#10385b" stroke-width="1.5" stroke-linecap="round" stroke-linejoin="round" stroke-miterlimit="10"/><g><path d="M47.5,7c0,0,3.6,18.4-10.5,23.6C22.9,25.4,26.5,6.8,26.5,6.8s5.2.9,10.5-2.9C42.3,7.7,47.5,7,47.5,7Z" fill="none" stroke="#10385b" stroke-width="1.5" stroke-linecap="round" stroke-linejoin="round" stroke-miterlimit="10"/></g><line x1="12.6" y1="48" x2="45.5" y2="48" fill="none" stroke="#10385b" stroke-width="1.5" stroke-linecap="round" stroke-linejoin="round" stroke-miterlimit="10"/><g><polyline points="14.5,47.7 14.5,41.4 22.3,41.4 22.3,48" fill="none" stroke="#10385b" stroke-width="1.5" stroke-linecap="round" stroke-linejoin="round" stroke-miterlimit="10"/><rect width="1.5" height="1.5" rx="0" ry="0" transform="translate(18.3 44)" fill="#10385b"/></g><g><polyline points="25,47.8 25,38.1 32.8,38.1 32.8,47.9" transform="translate(.094956 0)" fill="none" stroke="#10385b" stroke-width="1.5" stroke-linecap="round" stroke-linejoin="round" stroke-miterlimit="10"/><rect width="1.5" height="1.5" rx="0" ry="0" transform="translate(28.9 42.5)" fill="#2b98f7"/><rect width="1.5" height="1.5" rx="0" ry="0" transform="translate(28.9 39.5)" fill="#2b98f7"/></g><g><polyline points="35.9,48 35.9,32.7 43.3,32.7 43.3,48" fill="none" stroke="#10385b" stroke-width="1.5" stroke-linecap="round" stroke-linejoin="round" stroke-miterlimit="10"/><rect width="1.5" height="1.5" rx="0" ry="0" transform="translate(39.5 35)" fill="#10385b"/><rect width="1.5" height="1.5" rx="0" ry="0" transform="translate(39.5 38)" fill="#10385b"/><rect width="1.5" height="1.5" rx="0" ry="0" transform="translate(39.5 41.1)" fill="#10385b"/></g><path d="M33.7,21.1l1.3.5c.2.1.3.2.3.4v1.5c0,.2.2.4.4.4h1.9c.2,0,.4-.2.4-.4v-1.5c0-.2.1-.3.2-.4l1.1-.5c.2-.1.3,0,.5.1l1.1,1.1c.2.2.4.1.6,0l1.1-1.1c.2-.2.2-.4,0-.6l-1.2-1.2c-.1-.1-.2-.3-.1-.5l.7-1.3c.1-.1.2-.2.4-.2h1.6c.2,0,.4-.2.4-.4v-1.5c0-.2-.2-.4-.4-.4h-1.6c-.2,0-.3-.1-.4-.2l-.5-1.1c-.1-.2,0-.3.1-.5l1.2-1.2c.2-.2.2-.4,0-.6l-1.5-1.4c-.2-.2-.4-.2-.6,0l-1,1c-.1.1-.3.2-.5.1l-1.1-.6c0-.4-.1-.4-.1-.6v-1.2c0-.2-.2-.4-.4-.4h-1.9c-.2,0-.4.2-.4.4v1.5c0,.2-.1.3-.2.4l-1.1.5c-.2.1-.3,0-.5-.1L32.4,10c-.2-.2-.4-.2-.6,0l-1.3,1.3c-.2.2-.2.4,0,.6l1,1.1c.1.1.1.3.1.4L31,14.6c-.1.2-.2.3-.4.3h-1.4c-.2,0-.4.2-.4.4v1.5c0,.2.2.4.4.4h1.4c.2,0,.3.1.4.3l.5,1.3c.1.1,0,.3-.1.4l-1.1,1.1c-.1.2-.1.4,0,.6l1.3,1.3c.2.2.4.2.6,0l1-1.1c.2,0,.4-.1.5,0Z" transform="matrix(0-1 1 0 20.450001 52.750001)" fill="none" stroke="#2b98f7" stroke-width="1.5" stroke-linecap="round" stroke-linejoin="round" stroke-miterlimit="10"/><circle r="3" transform="translate(36.5 16)" fill="none" stroke="#10385b" stroke-width="1.5" stroke-linecap="round" stroke-linejoin="round" stroke-miterlimit="10"/></g></svg>