<svg id="exlDkJGVbFv1" xmlns="http://www.w3.org/2000/svg" xmlns:xlink="http://www.w3.org/1999/xlink" viewBox="0 0 60 60" shape-rendering="geometricPrecision" text-rendering="geometricPrecision"><style><![CDATA[#exlDkJGVbFv4 {animation: exlDkJGVbFv4__m 3000ms linear infinite normal forwards}@keyframes exlDkJGVbFv4__m { 0% {d: path('M10.5,32L13.299999,35.930784C14.461923,37.858711,14.8,39.158414,15.2,40.927209L16.1,45.510377C16.1,46.710377,17.1,47.710377,18.3,47.710377L18.3,47.710377C19.5,47.710377,20.5,46.710377,20.5,45.510377L19.8,38.194605C19.15,35.553793,18.55,34.2,17.3,32L16.099999,29.645397C14.8,28.074049,15.2,26.4,15.2,25.2L15.2,21.9C15.2,21.8,15.2,21.6,15.3,21.5C15.5,21,16.1,19.8,17.8,19.1L26.1,14C26.7,13.6,26.9,12.9,26.5,12.3L25.8,11C25.4,10.4,24.6,10.2,24,10.6L17.5,14.9C17.4,14.9,17.4,15,17.3,15C16.8,15.2,14.5,16.2,12.4,16.2C12.4,16.2,6,15.7,4.1,18.2C4.1,18.2,0,20.8,1.9,30.9C1.9,30.9,2.7,33.1,5.1,32.8')} 13.333333% {d: path('M10.5,32L13.9,32C15.1,32,16.1,33,16.1,34.2L16.1,38.7C16.1,39.9,17.1,40.9,18.3,40.9L18.3,40.9C19.5,40.9,20.5,39.9,20.5,38.7L20.5,29.6C20.5,28.4,19.5,27.4,18.3,27.4L17.4,27.4C16.2,27.4,15.2,26.4,15.2,25.2L15.2,21.9C15.2,21.8,15.2,21.6,15.3,21.5C15.5,21,16.1,19.8,17.8,19.1L26.1,14C26.7,13.6,26.9,12.9,26.5,12.3L25.8,11C25.4,10.4,24.6,10.2,24,10.6L17.5,14.9C17.4,14.9,17.4,15,17.3,15C16.8,15.2,14.5,16.2,12.4,16.2C12.4,16.2,6,15.7,4.1,18.2C4.1,18.2,0,20.8,1.9,30.9C1.9,30.9,2.7,33.1,5.1,32.8')} 100% {d: path('M10.5,32L13.9,32C15.1,32,16.1,33,16.1,34.2L16.1,38.7C16.1,39.9,17.1,40.9,18.3,40.9L18.3,40.9C19.5,40.9,20.5,39.9,20.5,38.7L20.5,29.6C20.5,28.4,19.5,27.4,18.3,27.4L17.4,27.4C16.2,27.4,15.2,26.4,15.2,25.2L15.2,21.9C15.2,21.8,15.2,21.6,15.3,21.5C15.5,21,16.1,19.8,17.8,19.1L26.1,14C26.7,13.6,26.9,12.9,26.5,12.3L25.8,11C25.4,10.4,24.6,10.2,24,10.6L17.5,14.9C17.4,14.9,17.4,15,17.3,15C16.8,15.2,14.5,16.2,12.4,16.2C12.4,16.2,6,15.7,4.1,18.2C4.1,18.2,0,20.8,1.9,30.9C1.9,30.9,2.7,33.1,5.1,32.8')}} #exlDkJGVbFv10_ts {animation: exlDkJGVbFv10_ts__ts 3000ms linear infinite normal forwards}@keyframes exlDkJGVbFv10_ts__ts { 0% {transform: translate(18.4px,48px) scale(1,0);animation-timing-function: cubic-bezier(0.42,0,0.58,1)} 13.333333% {transform: translate(18.4px,48px) scale(1,1)} 100% {transform: translate(18.4px,48px) scale(1,1)}} #exlDkJGVbFv13_ts {animation: exlDkJGVbFv13_ts__ts 3000ms linear infinite normal forwards}@keyframes exlDkJGVbFv13_ts__ts { 0% {transform: translate(28.9px,47.7px) scale(1,0)} 6.666667% {transform: translate(28.9px,47.7px) scale(1,0);animation-timing-function: cubic-bezier(0.42,0,0.58,1)} 20% {transform: translate(28.9px,47.7px) scale(1,1)} 100% {transform: translate(28.9px,47.7px) scale(1,1)}} #exlDkJGVbFv17_ts {animation: exlDkJGVbFv17_ts__ts 3000ms linear infinite normal forwards}@keyframes exlDkJGVbFv17_ts__ts { 0% {transform: translate(39.6px,47.9px) scale(1,0)} 16.666667% {transform: translate(39.6px,47.9px) scale(1,0);animation-timing-function: cubic-bezier(0.42,0,0.58,1)} 30% {transform: translate(39.6px,47.9px) scale(1,1)} 100% {transform: translate(39.6px,47.9px) scale(1,1)}} #exlDkJGVbFv22_tr {animation: exlDkJGVbFv22_tr__tr 3000ms linear infinite normal forwards}@keyframes exlDkJGVbFv22_tr__tr { 0% {transform: translate(36.600001px,16.15px) rotate(0deg);animation-timing-function: cubic-bezier(0.29,0.36,0.255,0.83)} 50% {transform: translate(36.600001px,16.15px) rotate(-90deg)} 100% {transform: translate(36.600001px,16.15px) rotate(-90deg)}}]]></style><g transform="matrix(1.09408 0 0 1.09408 3.0261 1.608624)"><path d="M5.5,20.7v24.7c0,1.3,1,2.3,2.3,2.3v0c1.3,0,2.3-1,2.3-2.3v-16.8" fill="none" stroke="white" stroke-width="1.5" stroke-linecap="round" stroke-linejoin="round" stroke-miterlimit="10"/><path id="exlDkJGVbFv4" d="M10.5,32l2.799999,3.930784C14.461923,37.858711,14.8,39.158414,15.2,40.927209l.9,4.583168c0,1.2,1,2.2,2.2,2.2v0c1.2,0,2.2-1,2.2-2.2l-.7-7.315772C19.15,35.553793,18.55,34.2,17.3,32l-1.200001-2.354603C14.8,28.074049,15.2,26.4,15.2,25.2v-3.3c0-.1,0-.3.1-.4.2-.5.8-1.7,2.5-2.4L26.1,14c.6-.4.8-1.1.4-1.7L25.8,11c-.4-.6-1.2-.8-1.8-.4l-6.5,4.3c-.1,0-.1.1-.2.1-.5.2-2.8,1.2-4.9,1.2c0,0-6.4-.5-8.3,2c0,0-4.1,2.6-2.2,12.7c0,0,.8,2.2,3.2,1.9" fill="none" stroke="white" stroke-width="1.5" stroke-linecap="round" stroke-linejoin="round" stroke-miterlimit="10"/><polyline points="6.9,16.6 10,20.7 13.3,16.1" fill="none" stroke="white" stroke-width="1.5" stroke-linecap="round" stroke-linejoin="round" stroke-miterlimit="10"/><circle r="4.8" transform="translate(10 11.4)" fill="none" stroke="white" stroke-width="1.5" stroke-linecap="round" stroke-linejoin="round" stroke-miterlimit="10"/><g><path d="M47.5,7c0,0,3.6,18.4-10.5,23.6C22.9,25.4,26.5,6.8,26.5,6.8s5.2.9,10.5-2.9C42.3,7.7,47.5,7,47.5,7Z" fill="none" stroke="white" stroke-width="1.5" stroke-linecap="round" stroke-linejoin="round" stroke-miterlimit="10"/></g><line x1="12.6" y1="48" x2="45.5" y2="48" fill="none" stroke="white" stroke-width="1.5" stroke-linecap="round" stroke-linejoin="round" stroke-miterlimit="10"/><g id="exlDkJGVbFv10_ts" transform="translate(18.4,48) scale(1,0)"><g transform="translate(-18.4,-48)"><polyline points="14.5,47.7 14.5,41.4 22.3,41.4 22.3,48" fill="none" stroke="white" stroke-width="1.5" stroke-linecap="round" stroke-linejoin="round" stroke-miterlimit="10"/><rect width="1.5" height="1.5" rx="0" ry="0" transform="translate(18.3 44)" fill="white"/></g></g><g id="exlDkJGVbFv13_ts" transform="translate(28.9,47.7) scale(1,0)"><g transform="translate(-28.9,-47.7)"><polyline points="25,47.8 25,38.1 32.8,38.1 32.8,47.9" transform="translate(.094956 0)" fill="none" stroke="white" stroke-width="1.5" stroke-linecap="round" stroke-linejoin="round" stroke-miterlimit="10"/><rect width="1.5" height="1.5" rx="0" ry="0" transform="translate(28.9 42.5)" fill="#e74d61"/><rect width="1.5" height="1.5" rx="0" ry="0" transform="translate(28.9 39.5)" fill="#e74d61"/></g></g><g id="exlDkJGVbFv17_ts" transform="translate(39.6,47.9) scale(1,0)"><g transform="translate(-39.6,-47.9)"><polyline points="35.9,48 35.9,32.7 43.3,32.7 43.3,48" fill="none" stroke="white" stroke-width="1.5" stroke-linecap="round" stroke-linejoin="round" stroke-miterlimit="10"/><rect width="1.5" height="1.5" rx="0" ry="0" transform="translate(39.5 35)" fill="white"/><rect width="1.5" height="1.5" rx="0" ry="0" transform="translate(39.5 38)" fill="white"/><rect width="1.5" height="1.5" rx="0" ry="0" transform="translate(39.5 41.1)" fill="white"/></g></g><g id="exlDkJGVbFv22_tr" transform="translate(36.600001,16.15) rotate(0)"><path d="M33.7,21.1l1.3.5c.2.1.3.2.3.4v1.5c0,.2.2.4.4.4h1.9c.2,0,.4-.2.4-.4v-1.5c0-.2.1-.3.2-.4l1.1-.5c.2-.1.3,0,.5.1l1.1,1.1c.2.2.4.1.6,0l1.1-1.1c.2-.2.2-.4,0-.6l-1.2-1.2c-.1-.1-.2-.3-.1-.5l.7-1.3c.1-.1.2-.2.4-.2h1.6c.2,0,.4-.2.4-.4v-1.5c0-.2-.2-.4-.4-.4h-1.6c-.2,0-.3-.1-.4-.2l-.5-1.1c-.1-.2,0-.3.1-.5l1.2-1.2c.2-.2.2-.4,0-.6l-1.5-1.4c-.2-.2-.4-.2-.6,0l-1,1c-.1.1-.3.2-.5.1l-1.1-.6c0-.4-.1-.4-.1-.6v-1.2c0-.2-.2-.4-.4-.4h-1.9c-.2,0-.4.2-.4.4v1.5c0,.2-.1.3-.2.4l-1.1.5c-.2.1-.3,0-.5-.1L32.4,10c-.2-.2-.4-.2-.6,0l-1.3,1.3c-.2.2-.2.4,0,.6l1,1.1c.1.1.1.3.1.4L31,14.6c-.1.2-.2.3-.4.3h-1.4c-.2,0-.4.2-.4.4v1.5c0,.2.2.4.4.4h1.4c.2,0,.3.1.4.3l.5,1.3c.1.1,0,.3-.1.4l-1.1,1.1c-.1.2-.1.4,0,.6l1.3,1.3c.2.2.4.2.6,0l1-1.1c.2,0,.4-.1.5,0Z" transform="translate(-36.600001,-16.15)" fill="none" stroke="#e74d61" stroke-width="1.5" stroke-linecap="round" stroke-linejoin="round" stroke-miterlimit="10"/></g><circle r="3" transform="translate(36.5 16)" fill="none" stroke="white" stroke-width="1.5" stroke-linecap="round" stroke-linejoin="round" stroke-miterlimit="10"/></g></svg>